<?xml version="1.0" encoding="UTF-8" standalone="no"?>
<!-- Generator: Adobe Illustrator 16.0.0, SVG Export Plug-In . SVG Version: 6.00 Build 0)  -->

<svg
   xmlns:dc="http://purl.org/dc/elements/1.1/"
   xmlns:cc="http://creativecommons.org/ns#"
   xmlns:rdf="http://www.w3.org/1999/02/22-rdf-syntax-ns#"
   xmlns:svg="http://www.w3.org/2000/svg"
   xmlns="http://www.w3.org/2000/svg"
   xmlns:sodipodi="http://sodipodi.sourceforge.net/DTD/sodipodi-0.dtd"
   xmlns:inkscape="http://www.inkscape.org/namespaces/inkscape"
   version="1.1"
   id="Layer_1"
   x="0px"
   y="0px"
   width="879px"
   height="1138px"
   viewBox="0 0 879 1138"
   enable-background="new 0 0 879 1138"
   xml:space="preserve"
   inkscape:version="0.48.4 r9939"
   sodipodi:docname="Qbump-logo3BEST (1).svg"><metadata
     id="metadata55"><rdf:RDF><cc:Work
         rdf:about=""><dc:format>image/svg+xml</dc:format><dc:type
           rdf:resource="http://purl.org/dc/dcmitype/StillImage" /><dc:title /></cc:Work></rdf:RDF></metadata><defs
     id="defs53" /><sodipodi:namedview
     pagecolor="#ffffff"
     bordercolor="#666666"
     borderopacity="1"
     objecttolerance="10"
     gridtolerance="10"
     guidetolerance="10"
     inkscape:pageopacity="0"
     inkscape:pageshadow="2"
     inkscape:window-width="1188"
     inkscape:window-height="1078"
     id="namedview51"
     showgrid="false"
     inkscape:zoom="0.58656309"
     inkscape:cx="319.3671"
     inkscape:cy="491.91591"
     inkscape:window-x="1920"
     inkscape:window-y="0"
     inkscape:window-maximized="0"
     inkscape:current-layer="Layer_1" /><path
     style="fill:#ef2929;fill-opacity:1"
     d="M 204.9375 265.125 C 192.12335 265.32055 179.34313 266.98687 166.90625 270.15625 C 135.25625 277.98625 105.2225 295.20625 85.3125 321.40625 C 68.1025 343.70625 59.6025 371.9475 59.3125 399.9375 C 59.2725 445.6075 59.3225 491.29875 59.3125 536.96875 C 59.3525 546.15975 59.04625 555.38225 60.15625 564.53125 C 62.14625 583.91225 68.22125 602.9825 78.53125 619.5625 C 88.23125 635.3225 101.62 648.646 117 658.875 C 145.45 677.736 179.99 686.74625 214 685.65625 C 236 685.39625 258.26125 681.79375 278.28125 672.34375 C 286.65125 681.75375 295.04625 691.1425 303.40625 700.5625 C 305.97625 703.4835 308.94625 706.40775 312.90625 707.21875 C 317.92525 708.23775 322.87125 705.78125 326.53125 702.53125 C 335.10125 694.43125 344.0225 686.70375 352.8125 678.84375 C 357.7935 674.78475 362.145 669.515 363.625 663.125 C 364.855 658.625 363.815 653.645 361.125 649.875 C 353.525 640.175 345.415 630.82625 338.125 620.90625 C 340.385 616.63525 343.36625 612.80525 345.40625 608.40625 C 354.41625 591.06525 356.86 571.2275 357.25 551.9375 C 357.24 508.6265 357.25 465.311 357.25 422 C 357.15 408.66 357.7825 395.25 355.8125 382 C 353.3815 364.1 347.38 346.6325 337.75 331.3125 C 323.391 308.1325 301.13375 290.545 276.34375 279.625 C 253.97219 269.7025 229.40088 264.75167 204.9375 265.125 z M 209.25 349.5 C 224.08939 349.6526 239.09125 353.76875 250.53125 363.4375 C 264.15125 374.6975 270.4175 392.73125 270.4375 410.03125 C 270.4375 453.36125 270.4675 496.71225 270.4375 540.03125 C 270.2875 556.33225 264.68875 573.2065 252.46875 584.4375 C 238.76875 597.1265 219.08625 601.46875 200.90625 599.71875 C 185.28625 598.50875 169.64875 591.7125 159.71875 579.3125 C 150.49875 568.0825 146.6225 553.29775 146.5625 538.96875 C 146.5825 495.98875 146.5525 453.01025 146.5625 410.03125 C 146.7125 394.83125 151.25375 379.10375 161.84375 367.84375 C 171.35375 357.35375 185.1525 351.55125 199.0625 350.03125 C 202.42437 349.66375 205.82552 349.46479 209.25 349.5 z "
     id="path5" /><path
     style="fill:#2e3436;fill-opacity:1"
     d="M 515.96875 275.65625 C 511.28875 275.64625 506.09 276.21125 502.5 279.53125 C 498.98 283.00125 498.241 288.24675 498.25 292.96875 C 498.26 420.31875 498.23 547.66 498.25 675 C 498.309 679.45 499.08625 684.375 502.40625 687.625 C 505.37525 690.665 509.8365 691.5025 513.9375 691.5625 C 569.9575 691.5735 625.98 691.5515 682 691.5625 C 701.76 691.7615 721.66225 689.4075 740.53125 683.4375 C 755.35225 678.6765 769.50125 671.54375 781.53125 661.59375 C 794.42125 651.12375 804.52975 637.32125 810.96875 622.03125 C 818.44875 604.41125 821.11475 585.05 820.59375 566 C 820.13375 546.25 814.976 526.405 804.375 509.625 C 795.445 495.564 783.01375 483.56125 768.09375 476.03125 C 784.34375 467.10125 795.955 451.31625 802.375 434.15625 C 809.185 415.93625 810.80375 396.0825 809.09375 376.8125 C 807.11375 357.6025 800.425 338.7475 788.875 323.1875 C 777.895 308.2575 762.765 296.625 745.875 289.125 C 724.945 279.695 701.82 276.11875 679 275.71875 C 624.65 275.61875 570.30875 275.70625 515.96875 275.65625 z M 588.46875 364.8125 C 617.64975 364.8225 646.84025 364.82375 676.03125 364.84375 C 687.68025 365.29375 700.08525 365.455 710.40625 371.625 C 717.65625 375.775 721.8765 383.8275 722.9375 391.9375 C 724.2275 401.3475 723.614 411.4975 718.875 419.9375 C 714.864 427.0385 707.67 431.8165 700 434.1875 C 690.01 437.4475 679.4 437.5775 669 437.4375 C 664.31 437.3365 659.09625 438.0535 655.65625 441.5625 C 652.11625 445.4325 651.6125 450.99 651.5625 456 C 651.5625 472 651.5515 488 651.5625 504 C 651.6225 509.14 652.2135 515.01625 656.3125 518.65625 C 660.0025 522.01625 665.27 522.30125 670 522.28125 C 682.95 522.24225 696.40625 521.57125 708.65625 526.53125 C 716.52625 529.62125 723.32375 535.78125 726.34375 543.78125 C 730.01375 553.38125 729.9735 564.08125 727.8125 574.03125 C 726.0325 582.14025 721.4375 589.8085 714.4375 594.4375 C 706.3975 599.8175 696.519 601.61975 687 601.71875 C 654.139 601.72775 621.25625 601.70875 588.40625 601.71875 C 588.43625 522.74875 588.34875 443.7735 588.46875 364.8125 z "
     id="path7" /><path
     fill="#ED1D3F"
     d="M421.41,305.59c12.12-3.74,25.74,1.83,32.85,12.08c9.92,13.57,8.95,33.85-2.359,46.32  c-7.17,8.15-18.91,12.23-29.511,9.39c-13.029-3.17-22.489-15.42-24.189-28.45C395.38,328.63,405.06,310.25,421.41,305.59z"
     id="path9"
     style="fill:#ef2929;fill-opacity:1"
     inkscape:export-filename="/home/sqwishy/go/src/quickbump/www/images/logo60.png"
     inkscape:export-xdpi="12.207686"
     inkscape:export-ydpi="12.207686" /><path
     fill="#ED1D3F"
     d="M422.27,410.23c9.08-2.33,19.19,0.029,26.28,6.18c12.55,10.359,16.01,29.47,8.96,43.95  c-5.79,13.25-21.42,21.97-35.649,17.739c-16.88-4.439-26.721-23.51-23.551-40.119C400.21,425.26,409.54,413.4,422.27,410.23z"
     id="path15"
     style="fill:#ef2929;fill-opacity:1"
     inkscape:export-filename="/home/sqwishy/go/src/quickbump/www/images/logo60.png"
     inkscape:export-xdpi="12.207686"
     inkscape:export-ydpi="12.207686" /><path
     d="m 426.18498,508.94376 c 8.86812,-1.15587 17.9985,2.51571 24.18578,8.8584 11.51011,11.77236 12.86995,31.7232 3.57445,45.19439 -4.27379,6.32425 -10.87875,11.11187 -18.3676,12.76408 -8.52719,2.02033 -17.8528,-0.44681 -24.52574,-6.05131 -11.49068,-9.43148 -15.28853,-26.45866 -9.92686,-40.15423 3.86584,-10.67476 13.58872,-19.31948 25.05997,-20.61133 z"
     id="path17"
     inkscape:connector-curvature="0"
     style="fill:#2e3436;fill-opacity:1"
     inkscape:export-filename="/home/sqwishy/go/src/quickbump/www/images/logo60.png"
     inkscape:export-xdpi="12.207686"
     inkscape:export-ydpi="12.207686" /><path
     fill="#ED1D3F"
     d="M423.43,606.72c7.69-1.489,15.98-0.05,22.44,4.46c12.01,7.98,17.5,23.78,14.43,37.66  c-1.899,9.26-7.479,17.86-15.63,22.771c-8.42,5.239-19.6,5.67-28.41,1.13c-14.149-7.09-21.149-24.62-17.62-39.74  C401.1,620.55,410.78,609.36,423.43,606.72z"
     id="path19"
     style="fill:#ef2929;fill-opacity:1"
     inkscape:export-filename="/home/sqwishy/go/src/quickbump/www/images/logo60.png"
     inkscape:export-xdpi="12.207686"
     inkscape:export-ydpi="12.207686" /><path
     d="m 161.20993,739.72083 c 177.21339,-0.0199 354.41682,0 531.63022,-0.01 0.01,1.91281 0.0209,3.83557 0.0399,5.7683 -177.23232,0.0199 -354.45668,0.01 -531.69,0.01 0,-1.93273 0.01,-3.8555 0.0199,-5.76831 z"
     id="path21"
     inkscape:connector-curvature="0"
     style="fill:#3b3b3c" /><path
     fill="#3B3B3C"
     d="M302.71,777.31c2-0.109,4.01-0.14,6.021-0.119c0.039,1.859,0.039,3.72,0,5.6  c-2.011-0.01-4.03-0.03-6.03-0.13C302.68,780.86,302.68,779.08,302.71,777.31z"
     id="path23" /><path
     fill="#3B3B3C"
     d="M358.8,781.83c-0.52-2.22,2.12-4.46,3.82-2.38c0.66,5.729-0.04,11.55,0.53,17.31  c3.729-2.939,7.13-6.31,11.029-9.029c1.66-1.311,3.62,0.539,3.09,2.369c-2.72,3.07-6.17,5.37-9.289,8  c3.819,3.28,7.81,6.36,11.479,9.82c-0.37,0.74-1.11,2.24-1.49,2.99c-5.21-2.29-8.989-6.75-13.479-10.11  c-2.15,2.7-1.45,6.34-1.891,9.53c-1.08,0.06-2.149,0.11-3.22,0.18C358.13,801.02,359.04,791.38,358.8,781.83z"
     id="path25" /><path
     fill="#3B3B3C"
     d="M483,780.92c-0.13-2.01,2.01-2.04,3.37-2.6c0.91,3.779,0.88,7.68,0.72,11.55  c5.03-5.53,16.86-2.09,15.78,6.12c-0.43,3.899,1.36,8.93-2.061,11.859c-3.3,3.641-9.55,3.73-13.14,0.49  c-1.11,1.19-2.45,2.11-4,2.641c-1.32-5.24-0.71-10.66-0.82-15.99C482.95,790.3,482.6,785.59,483,780.92z"
     id="path27" /><path
     fill="#3B3B3C"
     d="M234.9,793c2.09-5.99,10.83-7.82,15.2-3.27c0.79-1.74,2.44-2.381,4.23-2.561  c0.83,7.58,0.19,15.24,0.41,22.85c-0.15,3.211,0.64,6.75-1.27,9.601c-0.7-0.34-2.12-1.03-2.82-1.37c-0.06-3.46-0.07-6.91-0.03-10.35  c-4.43,4.67-13.36,3.25-15.71-2.9C234.54,801.02,234.57,796.98,234.9,793z"
     id="path29" /><path
     fill="#3B3B3C"
     d="M298.48,788.74c2.51-2.66,6.82-0.931,10.1-1.181c0.43,6.21,0.15,12.44,0.229,18.66  c1.95,0.11,3.91,0.24,5.86,0.431c-0.04,0.92-0.13,2.76-0.18,3.68c-4.88,0.17-9.79,0.38-14.66,0c-1.69-0.64-1.77-2.771-0.35-3.72  c1.71-0.33,3.47-0.29,5.21-0.38c0.01-4.86,0-9.721,0.02-14.57C302.42,791.29,297.92,792.44,298.48,788.74z"
     id="path31" /><path
     fill="#3B3B3C"
     d="M335.5,787.68c4.02-0.66,8.15-0.25,12.21-0.12c0.021,1.261,0.021,2.53,0.021,3.811  c-3.57,0.27-7.181-0.08-10.74,0.399c-2.66,1.49-5.8,3.74-5.17,7.25c-0.57,3.48,2.62,5.73,5.31,7.11c3.54,0.44,7.14,0.08,10.7,0.41  c-0.28,1.39,0.66,4.14-1.72,3.86c-4.96,0.04-10.9,1.33-14.61-2.91c-4.63-2.8-4.29-8.84-3.25-13.42  C329.91,791.3,332.67,789.18,335.5,787.68z"
     id="path33" /><path
     fill="#3B3B3C"
     d="M514.61,787.6c0.939-0.119,1.899-0.189,2.859-0.21c0.851,6.08,0.69,12.221,1.061,18.341  c4.27,1.93,7.83-1.54,11.239-3.601c0.461-4.86-1.1-10.2,0.98-14.729c2.1-0.57,3.3,0.439,3.07,2.58  c-0.141,6.81,0.649,13.75-0.471,20.479c-2.51,0.88-3.29-1.3-4.08-3.13c-3.789,3.56-11.409,5.2-14.539,0.05  c-0.9-4.38-0.671-8.939-0.98-13.399C513.88,791.86,513.1,789.36,514.61,787.6z"
     id="path35" /><path
     fill="#3B3B3C"
     d="M549.34,788.33c2.23-1.28,4.58-0.69,6.851,0.11c2.14-0.221,4.59-2,6.63-0.351c2.08,1.2,1.859,3.79,1.96,5.86  c0.04,4.689,0.62,9.37,0.43,14.069c0.28,2.131-2.03,2.551-3.6,2.671c-1.271-6.28-0.63-12.71-1.271-19.051  c-1.01,0.71-2.03,1.42-2.96,2.25c-0.74,5.591,0.4,11.341-0.939,16.891c-1.471-0.311-3.45-0.42-3.5-2.351  c-0.381-5.58,0.18-11.199-0.32-16.779c-1.09,0.859-2.23,1.649-3.42,2.369c-0.07,4.681,0.1,9.381-0.07,14.061  c0.2,2.08-2.05,2.439-3.56,2.729c-1.061-7.829-1.11-15.89,0.029-23.699C546.84,787.5,548.09,787.9,549.34,788.33z"
     id="path37" /><path
     fill="#3B3B3C"
     d="M580.72,789.91c2.03-2.07,4.86-3.37,7.75-2.271c2.63,1.46,5.141,3.37,6.98,5.78  c0.859,3.9,1.14,8.25-0.16,12.07c-2.72,2.81-6.03,6.42-10.34,5.75c-1.98-0.141-3.3-1.86-4.8-2.931  c-0.03,3.21,0.43,6.511-0.301,9.681c-0.42,1.75-3.38,1.68-3.59-0.141c-0.779-4.899-0.189-9.89-0.359-14.83  c0.13-5.199-0.391-10.5,0.739-15.609C578.73,786.77,579.81,788.31,580.72,789.91z"
     id="path39" /><path
     fill="#3B3B3C"
     d="M265.67,787.63c0.92-0.04,2.76-0.13,3.69-0.17c0.62,6.26,0.55,12.58,1.24,18.84  c4.28,0.79,7.66-2.04,11.02-4.18c0.02-4.83-0.08-9.65,0.14-14.46c0.92-0.061,2.76-0.17,3.68-0.22c0.35,7.609,0.73,15.34-0.14,22.909  c-2.56,1.141-3.34-1.149-4.16-3.029c-3.39,2.92-8.47,4.529-12.59,2.229c-2.6-1.47-2.54-4.71-2.74-7.3  C265.73,797.38,265.46,792.5,265.67,787.63z"
     id="path41" /><path
     fill="#FEFEFE"
     d="M239.23,803.93c-0.57-4.18-1.67-9.77,2.41-12.569c3.69-0.46,6.44,1.88,8.94,4.22  c0.02,1.13,0.03,2.27,0.03,3.41C251.75,804.63,242.27,809.5,239.23,803.93z"
     id="path43" /><path
     fill="#FEFEFE"
     d="M487.32,796c1.05-1.84,2.92-3.02,4.449-4.44c1.49-0.02,2.98-0.029,4.48-0.04  c3.63,2.351,2.37,6.971,2.47,10.61c0.32,1.93-1.43,2.99-2.529,4.24c-1.45-0.021-2.891-0.03-4.33-0.03  c-1.48-1.27-3.061-2.43-4.311-3.92C486.84,800.38,487.08,798.1,487.32,796z"
     id="path45" /><path
     fill="#FEFEFE"
     d="M584.4,792.32c1.92-2.051,4.149,0.41,5.67,1.68c2.81,2.04,1.62,6.03,1.52,8.97  c-1.649,1.79-3.729,4.36-6.45,3.84c-1.779-1.149-3.319-2.67-4.609-4.319c-0.58-1.99-0.48-4.15-0.101-6.15  C581.47,794.75,582.9,793.46,584.4,792.32z"
     id="path47" /><path
     fill="#3B3B3C"
     d="M426.58,797.41c2.7-0.25,5.42-0.36,8.13-0.15c0.21,2.48,0.23,4.98,0.03,7.471  c-2.73,0.25-5.48,0.25-8.181-0.171C426.49,802.17,426.5,799.78,426.58,797.41z"
     id="path49" /></svg>